<?xml version="1.0" encoding="utf-8"?>
<!-- Generator: Adobe Illustrator 17.1.0, SVG Export Plug-In . SVG Version: 6.00 Build 0)  -->
<!DOCTYPE svg PUBLIC "-//W3C//DTD SVG 1.1//EN" "http://www.w3.org/Graphics/SVG/1.1/DTD/svg11.dtd">
<svg version="1.1" id="Layer_1" xmlns="http://www.w3.org/2000/svg" xmlns:xlink="http://www.w3.org/1999/xlink" x="0px" y="0px"
	 viewBox="0 0 88 64" enable-background="new 0 0 88 64" xml:space="preserve">
<g>
	<g>
		<path fill="#0086FF" d="M45,11.722c10.159,0,18.424,8.265,18.424,18.424c0,10.159-8.265,18.424-18.424,18.424
			s-18.424-8.265-18.424-18.424C26.576,19.987,34.841,11.722,45,11.722 M45,10.291c-10.965,0-19.854,8.889-19.854,19.854
			C25.146,41.111,34.035,50,45,50s19.854-8.889,19.854-19.854C64.854,19.18,55.965,10.291,45,10.291L45,10.291z"/>
	</g>
	<path fill="none" stroke="#0086FF" stroke-width="1.4303" stroke-miterlimit="10" d="M26.26,25.285
		c-2.273,1.399-3.593,3.068-3.593,4.861c0,4.934,9.999,8.933,22.333,8.933s22.333-4,22.333-8.933c0-1.779-1.301-3.437-3.542-4.83
		l-0.465-0.187"/>
	<path fill="none" stroke="#0086FF" stroke-width="1.4303" stroke-miterlimit="10" d="M39.88,48.784
		c-2.364,1.287-4.485,1.604-6.046,0.703c-4.273-2.467-2.737-13.126,3.43-23.807s14.63-17.341,18.903-14.874
		c1.498,0.865,2.282,2.738,2.403,5.265l0.004,0.637"/>
	<path fill="none" stroke="#0086FF" stroke-width="1.4303" stroke-miterlimit="10" d="M39.905,11.521
		c-2.374-1.298-4.504-1.621-6.071-0.716c-4.273,2.467-2.737,13.126,3.43,23.807s14.63,17.341,18.903,14.874
		c1.517-0.876,2.301-2.783,2.407-5.358v-0.875"/>
	<circle fill="#0086FF" cx="32.281" cy="37.489" r="2.147"/>
	<circle fill="#0086FF" cx="39.947" cy="38.827" r="2.147"/>
	<circle fill="#0086FF" cx="34.919" cy="30.146" r="2.147"/>
</g>
<g>
	<g>
		<path fill-rule="evenodd" clip-rule="evenodd" fill="#0086FF" d="M88,57v1h4v-1H88z M88,61h4v-1h-4V61z M88,64h4v-1h-4V64z M88,67
			h4v-1h-4V67z M88,70h4v-1h-4V70z"/>
	</g>
</g>
</svg>
