<?xml version="1.0" encoding="utf-8"?>
<!-- Generator: Adobe Illustrator 17.1.0, SVG Export Plug-In . SVG Version: 6.00 Build 0)  -->
<!DOCTYPE svg PUBLIC "-//W3C//DTD SVG 1.1//EN" "http://www.w3.org/Graphics/SVG/1.1/DTD/svg11.dtd">
<svg version="1.1" id="Layer_1" xmlns="http://www.w3.org/2000/svg" xmlns:xlink="http://www.w3.org/1999/xlink" x="0px" y="0px"
	 viewBox="0 0 120 120" enable-background="new 0 0 120 120" xml:space="preserve">
<defs>
	<filter id="Adobe_OpacityMaskFilter" filterUnits="userSpaceOnUse" x="25" y="25" width="70" height="70">
		
			<feColorMatrix  type="matrix" values="-1 0 0 0 1  0 -1 0 0 1  0 0 -1 0 1  0 0 0 1 0" color-interpolation-filters="sRGB" result="source"/>
		<feFlood  style="flood-color:white;flood-opacity:1" result="back"/>
		<feBlend  in="source" in2="back" mode="normal"/>
	</filter>
</defs>
<mask maskUnits="userSpaceOnUse" x="25" y="25" width="70" height="70" id="SVGID_1_">
	<g filter="url(#Adobe_OpacityMaskFilter)">
		<circle fill="#FFFFFF" cx="60" cy="60" r="30.404"/>
	</g>
</mask>
<g mask="url(#SVGID_1_)">
	<line fill="none" stroke="#EA1F59" stroke-width="2" stroke-miterlimit="10" x1="60" y1="60" x2="95" y2="60"/>
	<line fill="none" stroke="#EA1F59" stroke-width="2" stroke-miterlimit="10" x1="60" y1="60" x2="90.311" y2="42.5"/>
	<line fill="none" stroke="#EA1F59" stroke-width="2" stroke-miterlimit="10" x1="60" y1="60" x2="90.311" y2="42.5"/>
	<line fill="none" stroke="#EA1F59" stroke-width="2" stroke-miterlimit="10" x1="60" y1="60" x2="77.5" y2="29.689"/>
	<line fill="none" stroke="#EA1F59" stroke-width="2" stroke-miterlimit="10" x1="60" y1="60" x2="60" y2="25"/>
	<line fill="none" stroke="#EA1F59" stroke-width="2" stroke-miterlimit="10" x1="60" y1="60" x2="90.311" y2="77.5"/>
	<line fill="none" stroke="#EA1F59" stroke-width="2" stroke-miterlimit="10" x1="60" y1="60" x2="77.5" y2="90.311"/>
	<line fill="none" stroke="#EA1F59" stroke-width="2" stroke-miterlimit="10" x1="60" y1="60" x2="25" y2="60"/>
	<line fill="none" stroke="#EA1F59" stroke-width="2" stroke-miterlimit="10" x1="60" y1="60" x2="29.689" y2="42.5"/>
	<line fill="none" stroke="#EA1F59" stroke-width="2" stroke-miterlimit="10" x1="60" y1="60" x2="42.5" y2="29.689"/>
	<line fill="none" stroke="#EA1F59" stroke-width="2" stroke-miterlimit="10" x1="60" y1="60" x2="29.689" y2="77.5"/>
	<line fill="none" stroke="#EA1F59" stroke-width="2" stroke-miterlimit="10" x1="60" y1="60" x2="42.5" y2="90.311"/>
	<line fill="none" stroke="#EA1F59" stroke-width="2" stroke-miterlimit="10" x1="60" y1="60" x2="60" y2="95"/>
</g>
<g>
	<polygon fill="#EA1F59" points="65.881,56.24 43.273,77.434 42.566,76.727 63.76,54.119 	"/>
</g>
<g>
	<polygon fill="#EA1F59" points="56.253,55.992 73.888,67.782 73.372,68.639 54.705,58.561 	"/>
</g>
</svg>
