<?xml version="1.0" encoding="utf-8"?>
<!-- Generator: Adobe Illustrator 17.1.0, SVG Export Plug-In . SVG Version: 6.00 Build 0)  -->
<!DOCTYPE svg PUBLIC "-//W3C//DTD SVG 1.1//EN" "http://www.w3.org/Graphics/SVG/1.1/DTD/svg11.dtd">
<svg version="1.1" id="Layer_1" xmlns="http://www.w3.org/2000/svg" xmlns:xlink="http://www.w3.org/1999/xlink" x="0px" y="0px"
	 viewBox="0 0 64 64" enable-background="new 0 0 64 64" xml:space="preserve">
<g>
	<g>
		<path fill="#CCCCCC" d="M20.441,34.125c-1.398-5.262,0.879-10.642,5.243-13.374l-10.691,2.058l3.456,2.013
			c-3.116,6.934-0.558,15.282,6.114,19.167c3.44,2.003,7.446,2.535,11.282,1.498l-0.752-2.83
			C28.711,44.382,22.151,40.562,20.441,34.125z M38.309,41.253L49,39.195l-3.456-2.013c3.116-6.934,0.558-15.282-6.113-19.167
			c-3.44-2.003-7.447-2.535-11.282-1.498l0.752,2.83c6.382-1.725,12.942,2.095,14.652,8.532
			C44.95,33.141,42.673,38.522,38.309,41.253z"/>
	</g>
</g>
</svg>
