<?xml version="1.0" encoding="utf-8"?>
<!-- Generator: Adobe Illustrator 17.1.0, SVG Export Plug-In . SVG Version: 6.00 Build 0)  -->
<!DOCTYPE svg PUBLIC "-//W3C//DTD SVG 1.1//EN" "http://www.w3.org/Graphics/SVG/1.1/DTD/svg11.dtd">
<svg version="1.1" id="Layer_1" xmlns="http://www.w3.org/2000/svg" xmlns:xlink="http://www.w3.org/1999/xlink" x="0px" y="0px"
	 viewBox="0 0 120 120" enable-background="new 0 0 120 120" xml:space="preserve">
<line fill="none" stroke="#437FA8" stroke-width="9" stroke-linecap="round" stroke-linejoin="round" stroke-miterlimit="10" x1="82.66" y1="82.674" x2="86.104" y2="86.118"/>
<defs>
	<filter id="Adobe_OpacityMaskFilter" filterUnits="userSpaceOnUse" x="25.566" y="25.098" width="69.868" height="69.836">
		
			<feColorMatrix  type="matrix" values="-1 0 0 0 1  0 -1 0 0 1  0 0 -1 0 1  0 0 0 1 0" color-interpolation-filters="sRGB" result="source"/>
		<feFlood  style="flood-color:white;flood-opacity:1" result="back"/>
		<feBlend  in="source" in2="back" mode="normal"/>
	</filter>
</defs>
<mask maskUnits="userSpaceOnUse" x="25.566" y="25.098" width="69.868" height="69.836" id="SVGID_1_">
	<g filter="url(#Adobe_OpacityMaskFilter)">
		
			<ellipse transform="matrix(0.7071 0.7071 -0.7071 0.7071 76.519 -31.6049)" fill="#FFFFFF" cx="76.41" cy="76.564" rx="12.29" ry="12.285"/>
		<circle fill="#FFFFFF" cx="85.174" cy="85.328" r="6.771"/>
	</g>
</mask>
<g mask="url(#SVGID_1_)">
	<g>
		<path fill="#437FA8" d="M60.5,26.716c18.371,0,33.316,14.938,33.316,33.3s-14.946,33.3-33.316,33.3s-33.316-14.938-33.316-33.3
			S42.129,26.716,60.5,26.716 M60.5,25.098c-19.294,0-34.934,15.633-34.934,34.918S41.206,94.934,60.5,94.934
			s34.934-15.633,34.934-34.918S79.794,25.098,60.5,25.098L60.5,25.098z"/>
	</g>
	<line fill="none" stroke="#437FA8" stroke-miterlimit="10" x1="60.5" y1="94.934" x2="60.5" y2="25.098"/>
	<line fill="none" stroke="#437FA8" stroke-miterlimit="10" x1="27" y1="60.582" x2="95" y2="60.582"/>
	<path fill="none" stroke="#437FA8" stroke-miterlimit="10" d="M60.5,26.122c-4.514,1.766-9.243,6.658-12.269,13.04
		c-2.882,6.078-4.172,13.506-4.172,20.871s1.29,14.793,4.172,20.871c3.027,6.382,7.755,11.274,12.269,13.04"/>
	<path fill="none" stroke="#437FA8" stroke-miterlimit="10" d="M60.5,26.122c4.514,1.766,9.243,6.658,12.269,13.04
		c2.882,6.078,4.172,13.506,4.172,20.871s-1.29,14.793-4.172,20.871c-3.027,6.382-7.755,11.274-12.269,13.04"/>
	<line fill="none" stroke="#437FA8" stroke-miterlimit="10" x1="82.187" y1="76.5" x2="31" y2="76.5"/>
	<line fill="none" stroke="#437FA8" stroke-miterlimit="10" x1="90" y1="43.5" x2="31" y2="43.5"/>
</g>
<g>
	<g>
		<path fill="#437FA8" d="M76.371,67.095c-1.135,0-2.218,0.214-3.223,0.586l5.59,5.59l-1.158,4.322l-4.322,1.158l-5.59-5.59
			c-0.373,1.005-0.586,2.088-0.586,3.223c0,5.131,4.159,9.29,9.29,9.29c5.131,0,9.29-4.159,9.29-9.29
			C85.661,71.254,81.501,67.095,76.371,67.095z"/>
	</g>
</g>
</svg>
