<?xml version="1.0" encoding="utf-8"?>
<!-- Generator: Adobe Illustrator 17.1.0, SVG Export Plug-In . SVG Version: 6.00 Build 0)  -->
<!DOCTYPE svg PUBLIC "-//W3C//DTD SVG 1.1//EN" "http://www.w3.org/Graphics/SVG/1.1/DTD/svg11.dtd">
<svg version="1.1" id="Layer_1" xmlns="http://www.w3.org/2000/svg" xmlns:xlink="http://www.w3.org/1999/xlink" x="0px" y="0px"
	 viewBox="0 0 48 48" enable-background="new 0 0 48 48" xml:space="preserve">
<path fill="#DDDDDD" d="M48,24.333c0,8.8-7.2,16-16,16H16c-8.8,0-16-7.2-16-16l0,0c0-8.8,7.2-16,16-16h16
	C40.8,8.333,48,15.533,48,24.333L48,24.333z"/>
<g>
	<path fill="#FFFFFF" d="M16,33.333c-4.962,0-9-4.038-9-9s4.038-9,9-9s9,4.038,9,9S20.962,33.333,16,33.333z"/>
	<path fill="#CCCCCC" d="M16,15.833c4.687,0,8.5,3.813,8.5,8.5c0,4.687-3.813,8.5-8.5,8.5s-8.5-3.813-8.5-8.5
		C7.5,19.646,11.313,15.833,16,15.833 M16,14.833c-5.238,0-9.5,4.262-9.5,9.5s4.262,9.5,9.5,9.5s9.5-4.262,9.5-9.5
		S21.238,14.833,16,14.833L16,14.833z"/>
</g>
</svg>
