<?xml version="1.0" encoding="utf-8"?>
<!-- Generator: Adobe Illustrator 17.1.0, SVG Export Plug-In . SVG Version: 6.00 Build 0)  -->
<!DOCTYPE svg PUBLIC "-//W3C//DTD SVG 1.1//EN" "http://www.w3.org/Graphics/SVG/1.1/DTD/svg11.dtd">
<svg version="1.1" id="Layer_1" xmlns="http://www.w3.org/2000/svg" xmlns:xlink="http://www.w3.org/1999/xlink" x="0px" y="0px"
	 viewBox="0 0 120 120" enable-background="new 0 0 120 120" xml:space="preserve">
<g>
	<g>
		<polygon fill="#31A1F4" points="95,78 95,37 43,37 43,44 45,44 45,39 93,39 93,77 61,77 61,82 100,82 100,78 		"/>
	</g>
</g>
<g>
	<g>
		<path fill="#31A1F4" d="M36,90H25c-1.657,0-3-1.343-3-3V62c0-1.657,1.343-3,3-3h11c1.657,0,3,1.343,3,3v25
			C39,88.657,37.657,90,36,90z M38,63H23v23h15V63z"/>
	</g>
</g>
<g>
	<g>
		<path fill="#31A1F4" d="M58,45H35c-1.657,0-3,1.343-3,3v10h1v-9h27v33H39v4h19c1.657,0,3-1.343,3-3V48C61,46.343,59.657,45,58,45z
			"/>
	</g>
</g>
</svg>
