<?xml version="1.0" encoding="utf-8"?>
<!-- Generator: Adobe Illustrator 17.1.0, SVG Export Plug-In . SVG Version: 6.00 Build 0)  -->
<!DOCTYPE svg PUBLIC "-//W3C//DTD SVG 1.1//EN" "http://www.w3.org/Graphics/SVG/1.1/DTD/svg11.dtd">
<svg version="1.1" id="Layer_1" xmlns="http://www.w3.org/2000/svg" xmlns:xlink="http://www.w3.org/1999/xlink" x="0px" y="0px"
	 viewBox="0 0 88 64" enable-background="new 0 0 88 64" xml:space="preserve">
<g>
	<g>
		<path fill="#0086FF" d="M40.366,42.4L44,46l3.634-3.6C45.627,40.412,42.373,40.412,40.366,42.4z M34.914,37l3.644,3.61
			c3.005-2.977,7.878-2.976,10.883,0L53.086,37C48.068,32.03,39.932,32.03,34.914,37z M29.463,31.601l3.646,3.611
			c6.015-5.958,15.767-5.958,21.783,0l3.646-3.611C50.509,23.648,37.491,23.648,29.463,31.601z M24.011,26.201l3.635,3.6
			c9.032-8.946,23.677-8.946,32.709,0l3.634-3.6C52.949,15.266,35.051,15.266,24.011,26.201z"/>
	</g>
</g>
<g>
	<g>
		<path fill-rule="evenodd" clip-rule="evenodd" fill="#0086FF" d="M88-7v1h4v-1H88z M88-3h4v-1h-4V-3z M88,0h4v-1h-4V0z M88,3h4V2
			h-4V3z M88,6h4V5h-4V6z"/>
	</g>
</g>
</svg>
