<?xml version="1.0" encoding="utf-8"?>
<!-- Generator: Adobe Illustrator 17.1.0, SVG Export Plug-In . SVG Version: 6.00 Build 0)  -->
<!DOCTYPE svg PUBLIC "-//W3C//DTD SVG 1.1//EN" "http://www.w3.org/Graphics/SVG/1.1/DTD/svg11.dtd">
<svg version="1.1" id="Layer_1" xmlns="http://www.w3.org/2000/svg" xmlns:xlink="http://www.w3.org/1999/xlink" x="0px" y="0px"
	 viewBox="0 0 160 128" enable-background="new 0 0 160 128" xml:space="preserve">
<path fill-rule="evenodd" clip-rule="evenodd" fill="#F7F7F7" d="M24,53h19v2H24V53z"/>
<path fill-rule="evenodd" clip-rule="evenodd" fill="#F7F7F7" d="M36,60h7v2h-7V60z"/>
<path fill-rule="evenodd" clip-rule="evenodd" fill="#F7F7F7" d="M24,81h7v2h-7V81z"/>
<path fill-rule="evenodd" clip-rule="evenodd" fill="#F7F7F7" d="M24,67h19v2H24V67z"/>
<path fill-rule="evenodd" clip-rule="evenodd" fill="#F7F7F7" d="M36,88h19v2H36V88z"/>
<path fill-rule="evenodd" clip-rule="evenodd" fill="#F7F7F7" d="M24,95h19v2H24V95z"/>
<path fill-rule="evenodd" clip-rule="evenodd" fill="#F7F7F7" d="M36,81h19v2H36V81z"/>
<path fill-rule="evenodd" clip-rule="evenodd" fill="#F7F7F7" d="M48,67h19v2H48V67z"/>
<path fill-rule="evenodd" clip-rule="evenodd" fill="#AAAAAA" d="M24,74h19v2H24V74z"/>
<path fill-rule="evenodd" clip-rule="evenodd" fill="#AAAAAA" d="M24,88h7v2h-7V88z"/>
<path fill-rule="evenodd" clip-rule="evenodd" fill="#AAAAAA" d="M24,60h7v2h-7V60z"/>
<path fill-rule="evenodd" clip-rule="evenodd" fill="#AAAAAA" d="M24,46h7v2h-7V46z"/>
<path fill-rule="evenodd" clip-rule="evenodd" fill="#AAAAAA" d="M17,39h125v2H17V39z"/>
<path fill-rule="evenodd" clip-rule="evenodd" fill="#F7F7F7" d="M24,32h109v2H24V32z"/>
<g>
	<path fill="#AAAAAA" d="M142,27v75H18V27H142 M144,25H16v79h128V25L144,25z"/>
</g>
<path fill-rule="evenodd" clip-rule="evenodd" fill="none" stroke="#747474" stroke-width="2" stroke-miterlimit="10" d="M123,75v9
	l10,10v19"/>
<g>
	<path fill="#747474" d="M133,113c1.654,0,3,1.346,3,3s-1.346,3-3,3s-3-1.346-3-3S131.346,113,133,113 M133,111
		c-2.761,0-5,2.239-5,5s2.239,5,5,5s5-2.239,5-5S135.761,111,133,111L133,111z"/>
</g>
<g>
	<path fill="#747474" d="M123,68c1.654,0,3,1.346,3,3s-1.346,3-3,3s-3-1.346-3-3S121.346,68,123,68 M123,66c-2.761,0-5,2.239-5,5
		s2.239,5,5,5c2.761,0,5-2.239,5-5S125.761,66,123,66L123,66z"/>
</g>
</svg>
