<?xml version="1.0" encoding="utf-8"?>
<!-- Generator: Adobe Illustrator 17.1.0, SVG Export Plug-In . SVG Version: 6.00 Build 0)  -->
<!DOCTYPE svg PUBLIC "-//W3C//DTD SVG 1.1//EN" "http://www.w3.org/Graphics/SVG/1.1/DTD/svg11.dtd">
<svg version="1.1" id="Layer_1" xmlns="http://www.w3.org/2000/svg" xmlns:xlink="http://www.w3.org/1999/xlink" x="0px" y="0px"
	 viewBox="0 0 120 120" enable-background="new 0 0 120 120" xml:space="preserve">
<g>
	<path fill="#059E9C" d="M60.14,92.554c-11.718,0-20.168-9.363-22.842-25.153l-1.829-1.348c2.491,17.6,11.698,28.1,24.671,28.1
		c13.024,0,22.254-10.581,24.703-28.307L83.02,67.19C80.385,83.109,71.91,92.554,60.14,92.554z"/>
	<path fill="#059E9C" d="M68.525,52.261c-0.323-1.315-1.494-2.234-2.849-2.234h-0.705c-0.08-0.892-0.322-3.628-0.521-6.369
		c-0.128-1.669-0.256-3.337-0.353-4.589c-0.048-0.626-0.088-1.147-0.116-1.512c-0.014-0.183-0.025-0.326-0.033-0.424
		c-0.012-0.098,0.104-0.154,0.096-0.154c-0.011-0.302-0.265-0.537-0.567-0.526c-0.302,0.011-0.537,0.265-0.526,0.567
		c-0.007,0,0.112,0.048,0.108,0.146c0,0.098,0,0.242-0.001,0.425c-0.001,0.366-0.002,0.889-0.003,1.517
		c-0.002,1.255-0.006,2.929-0.009,4.602c0.006,2.678-0.028,5.352-0.042,6.316h-6.013c-0.014-0.964-0.049-3.639-0.042-6.316
		c-0.003-1.674-0.006-3.347-0.009-4.602c-0.001-0.628-0.002-1.151-0.003-1.517c0-0.183-0.001-0.327-0.001-0.425
		c-0.004-0.098,0.115-0.146,0.108-0.146c0.011-0.302-0.224-0.555-0.526-0.567c-0.302-0.011-0.555,0.224-0.567,0.526
		c-0.007,0,0.108,0.056,0.096,0.154c-0.008,0.098-0.019,0.241-0.033,0.424c-0.028,0.365-0.068,0.886-0.116,1.512
		c-0.096,1.252-0.224,2.92-0.353,4.589c-0.199,2.741-0.44,5.477-0.521,6.369h-0.705c-1.354,0-2.525,0.918-2.849,2.234l-1.391,5.675
		c-0.131,0.536,0.197,1.078,0.733,1.209c0.538,0.132,1.078-0.196,1.21-0.733l1.391-5.674c0.103-0.418,0.475-0.71,0.905-0.71h11.354
		c0.431,0,0.803,0.292,0.905,0.71l1.391,5.675c0.112,0.457,0.521,0.762,0.971,0.762c0.079,0,0.159-0.009,0.239-0.029
		c0.536-0.131,0.864-0.673,0.733-1.209L68.525,52.261z"/>
	<path fill="#059E9C" d="M92.373,54.714c-0.124-1.431-0.994-2.443-1.417-2.819c-0.892-0.792-2.923-2.503-3.644-3.108
		C83.648,31.448,71.319,25.042,60,25.042s-23.648,6.407-27.312,23.746c-0.721,0.605-2.752,2.316-3.644,3.108
		c-0.423,0.376-1.293,1.387-1.417,2.819c-0.124,1.431,0.406,2.275,0.759,2.717c1.091,1.366,11.081,9.161,16.952,12.895
		C47.272,71.557,49.077,72,51,72c0,0,4.845,0,9,0s9,0,9,0c1.923,0,3.728-0.443,5.662-1.673c5.871-3.734,15.861-11.529,16.952-12.895
		C91.967,56.989,92.497,56.145,92.373,54.714z M81.427,61.464c-3.96,3.232-6.736,5.145-8.427,5.884C72.428,67.597,70.624,68,70,68
		H60H50c-0.624,0-2.428-0.403-3-0.653c-1.691-0.738-4.467-2.651-8.427-5.884c-1.662-1.356-3.151-2.643-4.287-3.896
		c-0.255-0.281-0.67-0.951-0.936-1.75C34.83,34.337,48.014,26.641,60,26.641s25.17,7.696,26.651,29.176
		c-0.267,0.799-0.681,1.469-0.936,1.75C84.578,58.821,83.089,60.107,81.427,61.464z"/>
</g>
</svg>
