<?xml version="1.0" encoding="utf-8"?>
<!-- Generator: Adobe Illustrator 17.1.0, SVG Export Plug-In . SVG Version: 6.00 Build 0)  -->
<!DOCTYPE svg PUBLIC "-//W3C//DTD SVG 1.1//EN" "http://www.w3.org/Graphics/SVG/1.1/DTD/svg11.dtd">
<svg version="1.1" id="Layer_1" xmlns="http://www.w3.org/2000/svg" xmlns:xlink="http://www.w3.org/1999/xlink" x="0px" y="0px"
	 viewBox="0 0 120 120" enable-background="new 0 0 120 120" xml:space="preserve">
<g>
	<polygon fill="#57D37A" points="41.253,42.267 60.634,63.741 63.639,60.736 42.165,41.355 	"/>
	<path fill="#57D37A" d="M59.998,24c-19.851,0-36,16.149-36,36c0,9.617,3.745,18.657,10.545,25.457l1.414-1.414
		c-6.422-6.422-9.959-14.96-9.959-24.043c0-18.748,15.252-34,34-34s34,15.252,34,34c0,9.082-3.537,17.62-9.958,24.042l1.414,1.414
		c6.8-6.799,10.544-15.839,10.544-25.456C95.998,40.149,79.849,24,59.998,24z"/>
</g>
</svg>
