<?xml version="1.0" encoding="utf-8"?>
<!-- Generator: Adobe Illustrator 17.1.0, SVG Export Plug-In . SVG Version: 6.00 Build 0)  -->
<!DOCTYPE svg PUBLIC "-//W3C//DTD SVG 1.1//EN" "http://www.w3.org/Graphics/SVG/1.1/DTD/svg11.dtd">
<svg version="1.1" id="Layer_1" xmlns="http://www.w3.org/2000/svg" xmlns:xlink="http://www.w3.org/1999/xlink" x="0px" y="0px"
	 viewBox="0 0 64 64" enable-background="new 0 0 64 64" xml:space="preserve">
<g>
	<path fill="#0086FF" d="M25.181,22.122l-9.684,2.595l2.56,1.793c-0.983,2.489-1.328,5.266-0.829,8.095
		c1.439,8.158,9.218,13.606,17.377,12.167l0,0l-0.521-2.954c-6.527,1.151-12.751-3.207-13.901-9.734
		c-0.841-4.767,1.266-9.363,5.001-11.948"/>
	<path fill="#0086FF" d="M38.819,41.877l9.684-2.595l-2.56-1.793c0.983-2.489,1.328-5.266,0.829-8.095
		c-1.439-8.158-9.218-13.606-17.377-12.167l0.521,2.954c6.527-1.151,12.751,3.207,13.901,9.734
		c0.841,4.767-1.266,9.363-5.001,11.948"/>
</g>
</svg>
