<?xml version="1.0" encoding="utf-8"?>
<!-- Generator: Adobe Illustrator 17.1.0, SVG Export Plug-In . SVG Version: 6.00 Build 0)  -->
<!DOCTYPE svg PUBLIC "-//W3C//DTD SVG 1.1//EN" "http://www.w3.org/Graphics/SVG/1.1/DTD/svg11.dtd">
<svg version="1.1" id="Layer_1" xmlns="http://www.w3.org/2000/svg" xmlns:xlink="http://www.w3.org/1999/xlink" x="0px" y="0px"
	 viewBox="0 0 120 120" enable-background="new 0 0 120 120" xml:space="preserve">
<g fill="#EA1F59">
	<path d="M29.596,60c0-0.335,0.014-0.667,0.025-1H25v2h4.621C29.61,60.667,29.596,60.335,29.596,60z"/>
	<path d="M45.671,33.181l-2.305-3.992l-1.732,1l2.307,3.996C44.506,33.833,45.082,33.497,45.671,33.181z"/>
	<path d="M34.185,43.941l-3.996-2.307l-1,1.732l3.992,2.305C33.497,45.082,33.833,44.506,34.185,43.941z"/>
	<path d="M60,29.596c0.335,0,0.667,0.014,1,0.025V25h-2v4.621C59.333,29.61,59.665,29.596,60,29.596z"/>
	<path d="M86.819,45.671l3.992-2.305l-1-1.732l-3.996,2.307C86.167,44.506,86.503,45.082,86.819,45.671z"/>
	<path d="M76.059,34.185l2.307-3.996l-1.732-1l-2.305,3.992C74.918,33.497,75.494,33.833,76.059,34.185z"/>
	<path d="M74.329,86.819l2.305,3.992l1.732-1l-2.307-3.996C75.494,86.167,74.918,86.503,74.329,86.819z"/>
	<path d="M85.815,76.059l3.996,2.307l1-1.732l-3.992-2.305C86.503,74.918,86.167,75.494,85.815,76.059z"/>
	<path d="M90.379,59c0.011,0.333,0.025,0.665,0.025,1s-0.014,0.667-0.025,1H95v-2H90.379z"/>
	<path d="M33.181,74.329l-3.992,2.305l1,1.732l3.996-2.307C33.833,75.494,33.497,74.918,33.181,74.329z"/>
	<path d="M43.941,85.815l-2.307,3.996l1.732,1l2.305-3.992C45.082,86.503,44.506,86.167,43.941,85.815z"/>
	<path d="M60,90.404c-0.335,0-0.667-0.014-1-0.025V95h2v-4.621C60.667,90.39,60.335,90.404,60,90.404z"/>
	<polygon points="73.888,67.782 62.028,59.853 65.881,56.24 63.76,54.119 59.788,58.355 56.253,55.992 54.705,58.561 
	57.952,60.314 42.566,76.727 43.273,77.434 60.226,61.542 73.372,68.639 "/>
</g>
</svg>
