<?xml version="1.0" encoding="utf-8"?>
<!-- Generator: Adobe Illustrator 17.1.0, SVG Export Plug-In . SVG Version: 6.00 Build 0)  -->
<!DOCTYPE svg PUBLIC "-//W3C//DTD SVG 1.1//EN" "http://www.w3.org/Graphics/SVG/1.1/DTD/svg11.dtd">
<svg version="1.1" id="Layer_1" xmlns="http://www.w3.org/2000/svg" xmlns:xlink="http://www.w3.org/1999/xlink" x="0px" y="0px"
	 viewBox="0 0 120 120" enable-background="new 0 0 120 120" xml:space="preserve">
<path fill="#31A1F4" d="M95,78V37H43v7h2v-5h48v38H61V48c0-1.657-1.343-3-3-3H35c-1.657,0-3,1.343-3,3v10h1v-9h27v33H39V62
	c0-1.657-1.343-3-3-3H25c-1.657,0-3,1.343-3,3v25c0,1.657,1.343,3,3,3h11c1.657,0,3-1.343,3-3v-1h19c1.657,0,3-1.343,3-3v-1h39v-4
	H95z M38,86H23V63h15V86z"/>
</svg>
