<?xml version="1.0" encoding="utf-8"?>
<!-- Generator: Adobe Illustrator 17.1.0, SVG Export Plug-In . SVG Version: 6.00 Build 0)  -->
<!DOCTYPE svg PUBLIC "-//W3C//DTD SVG 1.1//EN" "http://www.w3.org/Graphics/SVG/1.1/DTD/svg11.dtd">
<svg version="1.1" id="Layer_1" xmlns="http://www.w3.org/2000/svg" xmlns:xlink="http://www.w3.org/1999/xlink" x="0px" y="0px"
	 viewBox="0 0 120 120" enable-background="new 0 0 120 120" xml:space="preserve">
<g>
	<path fill="#437FA8" d="M85.842,79.492c-0.177-0.177-0.371-0.323-0.568-0.464c0.249-0.838,0.387-1.724,0.387-2.643
		c0-5.131-4.159-9.29-9.29-9.29c-1.135,0-2.218,0.214-3.223,0.586l5.59,5.59l-1.158,4.322l-4.322,1.158l-5.59-5.59
		c-0.373,1.005-0.586,2.088-0.586,3.223c0,5.131,4.159,9.29,9.29,9.29c0.919,0,1.805-0.138,2.643-0.387
		c0.141,0.197,0.288,0.392,0.465,0.569l3.444,3.444c0.878,0.878,2.03,1.318,3.182,1.318s2.304-0.439,3.182-1.318
		c1.758-1.757,1.758-4.607,0-6.364L85.842,79.492z"/>
	<path fill="#437FA8" d="M77.219,88.793c-4.223,2.46-9.032,4.024-14.165,4.415c2.374-1.456,4.685-3.661,6.7-6.346
		c-0.278-0.18-0.56-0.35-0.825-0.555c-2.367,3.151-5.149,5.594-7.929,6.873V77h3.144c-0.012-0.334-0.009-0.667,0.006-1H61V61.082
		h15.417c-0.018,1.083-0.071,2.148-0.143,3.201c0.333-0.004,0.666,0.012,0.999,0.035c0.073-1.065,0.125-2.142,0.143-3.236h16.372
		c-0.195,6.145-2.069,11.87-5.169,16.743c-0.053,0.514-0.137,1.026-0.254,1.531c0.296,0.158,0.575,0.343,0.842,0.542
		c3.921-5.642,6.226-12.491,6.226-19.882c0-19.117-15.372-34.637-34.434-34.905v-0.013h-1v0.013
		c-19.062,0.268-34.434,15.788-34.434,34.905S40.938,94.653,60,94.921v0.013h1v-0.013c6.877-0.097,13.269-2.187,18.637-5.707
		c-0.157-0.223-0.305-0.453-0.434-0.695C78.549,88.671,77.885,88.749,77.219,88.793z M93.816,60.016
		c0,0.022-0.002,0.044-0.002,0.066H77.44c0-0.017,0.001-0.033,0.001-0.05c0-5.81-0.784-11.25-2.273-16.032h14.531
		C92.32,48.755,93.816,54.214,93.816,60.016z M89.123,43H74.839c-0.479-1.412-1.011-2.774-1.618-4.053
		c-2.522-5.315-6.299-9.74-10.23-12.128C74.099,27.645,83.705,33.93,89.123,43z M61,26.884c4.273,1.966,8.557,6.672,11.317,12.492
		c0.544,1.146,1.021,2.366,1.46,3.624H61V26.884z M61,44h13.128c1.52,4.754,2.313,10.203,2.313,16.032
		c0,0.017-0.001,0.033-0.001,0.05H61V44z M58.009,26.819c-3.932,2.388-7.708,6.813-10.23,12.128
		c-0.606,1.279-1.139,2.64-1.618,4.053H31.877C37.295,33.93,46.901,27.645,58.009,26.819z M27.184,60.016
		c0-5.802,1.496-11.261,4.117-16.016h14.531c-1.489,4.782-2.273,10.222-2.273,16.032c0,0.017,0.001,0.033,0.001,0.05H27.186
		C27.185,60.06,27.184,60.038,27.184,60.016z M27.211,61.082h16.372c0.088,5.388,0.844,10.443,2.23,14.918H31.282
		C28.833,71.546,27.382,66.473,27.211,61.082z M31.858,77h14.279c0.485,1.436,1.025,2.819,1.641,4.118
		c2.509,5.287,6.259,9.694,10.168,12.091C46.852,92.363,37.262,86.07,31.858,77z M60,93.181c-4.273-1.966-8.557-6.672-11.317-12.492
		c-0.553-1.166-1.039-2.407-1.483-3.689H60V93.181z M60,76H46.853c-1.414-4.45-2.181-9.512-2.271-14.918H60V76z M60,60.082H44.56
		c0-0.017-0.001-0.033-0.001-0.05c0-5.83,0.794-11.279,2.313-16.032H60V60.082z M60,43H47.222c0.439-1.258,0.917-2.478,1.46-3.624
		c2.76-5.82,7.045-10.526,11.317-12.492V43z"/>
</g>
</svg>
