<?xml version="1.0" encoding="utf-8"?>
<!-- Generator: Adobe Illustrator 17.1.0, SVG Export Plug-In . SVG Version: 6.00 Build 0)  -->
<!DOCTYPE svg PUBLIC "-//W3C//DTD SVG 1.1//EN" "http://www.w3.org/Graphics/SVG/1.1/DTD/svg11.dtd">
<svg version="1.1" id="Layer_1" xmlns="http://www.w3.org/2000/svg" xmlns:xlink="http://www.w3.org/1999/xlink" x="0px" y="0px"
	 viewBox="0 0 290 95" enable-background="new 0 0 290 95" xml:space="preserve">
<g>
	<path fill-rule="evenodd" clip-rule="evenodd" fill="#F7F7F7" d="M30.5,30h19v2h-19V30z"/>
	<path fill-rule="evenodd" clip-rule="evenodd" fill="#F7F7F7" d="M6.5,30h19v2h-19V30z"/>
	<path fill-rule="evenodd" clip-rule="evenodd" fill="#F7F7F7" d="M6.5,44h43v2h-43V44z"/>
	<path fill-rule="evenodd" clip-rule="evenodd" fill="#F7F7F7" d="M18.5,58h7v2h-7V58z"/>
	<path fill-rule="evenodd" clip-rule="evenodd" fill="#F7F7F7" d="M6.5,58h7v2h-7V58z"/>
	<path fill-rule="evenodd" clip-rule="evenodd" fill="#AAAAAA" d="M6.5,65h19v2h-19V65z"/>
	<path fill-rule="evenodd" clip-rule="evenodd" fill="#AAAAAA" d="M6.5,37h19v2h-19V37z"/>
	<path fill-rule="evenodd" clip-rule="evenodd" fill="#AAAAAA" d="M6.5,51h7v2h-7V51z"/>
	<path fill-rule="evenodd" clip-rule="evenodd" fill="#AAAAAA" d="M1.5,22h287v2H1.5V22z"/>
	<polyline fill-rule="evenodd" clip-rule="evenodd" fill="none" stroke="#AAAAAA" stroke-width="2" stroke-miterlimit="10" points="
		289,95 289,1 1,1 1,95 	"/>
</g>
</svg>
