<?xml version="1.0" encoding="utf-8"?>
<!-- Generator: Adobe Illustrator 17.1.0, SVG Export Plug-In . SVG Version: 6.00 Build 0)  -->
<!DOCTYPE svg PUBLIC "-//W3C//DTD SVG 1.1//EN" "http://www.w3.org/Graphics/SVG/1.1/DTD/svg11.dtd">
<svg version="1.1" id="Layer_1" xmlns="http://www.w3.org/2000/svg" xmlns:xlink="http://www.w3.org/1999/xlink" x="0px" y="0px"
	 viewBox="0 0 20 20" enable-background="new 0 0 20 20" xml:space="preserve">
<g>
	<circle fill="none" stroke="#CCCCCC" stroke-width="1.6" stroke-miterlimit="10" cx="10" cy="10" r="9"/>
	<g>
		<path fill="#CCCCCC" d="M15.994,3.869c-0.075,0.037-0.375,0.177-0.651,0.177c-0.276,0-0.552-0.079-0.769-0.079
			c-0.217,0-0.651,0.177-0.769,0.296c-0.118,0.118-0.257,0.486-0.413,0.701c-0.111,0.153-0.129,0.295-0.04,0.383
			c0.089,0.089,0.178,0.178,0.266,0.266c0.088,0.088,0.069,0.176-0.089,0.266c-0.157,0.09-1.573,0.885-1.642,0.935
			c-0.12,0.087-0.132,0.248,0.203,0.248c0.251,0,0.638,0.031,0.882,0.031c0.082,0,0.165-0.016,0.231-0.118
			c0.061-0.095,0.121-0.166,0.261-0.166s0.399,0.017,0.596,0.017s0.197,0.099,0.197,0.256s0.139,0.315,0.453,0.315
			c0.177,0,0.966,0,1.163,0c0.197,0,0.485,0.102,0.522,0.325c0.038,0.227,0.004,0.584-0.195,0.874
			c-0.093,0.135-0.288,0.236-0.486,0.142c-0.376-0.18-0.828-0.611-1.222-0.611c-0.394,0-1.538-0.158-1.971-0.158
			c-0.251,0-0.405,0.073-0.677,0.377c-0.137,0.153-0.249,0.326-0.249,0.55c0,0.532,0.03,1.173,0.118,1.617
			c0.03,0.148,0.073,0.286,0.17,0.383c0.17,0.17,0.42,0.318,0.722,0.46c0.144,0.068,0.269,0.086,0.371,0.094
			c0.222,0.017,0.37-0.068,0.551,0.008c0.105,0.045,0.224,0.152,0.307,0.265c0.064,0.087,0.107,0.161,0.107,0.307
			c0,0.335,0,1.163,0,1.419c0,0.256,0.137,0.67,0.335,1.143c0.145,0.347,0.311,1.015,0.437,1.414
			c0.047,0.147,0.097,0.224,0.154,0.281c0.102,0.102,0.266,0.189,0.374,0.239c0.123,0.057,0.187,0.067,0.276-0.022
			c0.095-0.095,0.199-0.186,0.279-0.266c0.069-0.069,0.113-0.089,0.194-0.089c0.068,0,0.14-0.01,0.201-0.071
			c0.044-0.044,0.112-0.11,0.14-0.197c0.028-0.087,0.014-0.195,0.014-0.324c0-0.141-0.006-0.163-0.025-0.29
			c-0.04-0.264-0.108-0.596-0.093-0.676c0.007-0.037,0.078-0.068,0.129-0.042c0.047,0.024,0.159,0.067,0.189,0.056
			c0.051-0.018,0.076-0.028,0.076-0.132c0-0.296,0.138-1.065,0.237-1.36s0.419-1.002,0.71-1.292c0.29-0.29,0.03-0.325,0.03-0.551
			c0-0.227-0.128-0.207-0.128-0.542c0-0.335,0.256-0.296,0.414-0.453c0.158-0.158,0.611-0.434,0.71-0.71
			c0.083-0.231,0.215-0.385,0.365-0.323c-0.18-2.157-1.117-4.098-2.549-5.554C16.24,3.763,16.074,3.83,15.994,3.869z"/>
		<path fill="#CCCCCC" d="M1.948,8.815c0.326,0.451,0.627,0.794,1.132,1.189c0.247,0.193,0.388,0.267,0.577,0.278
			c0.103,0.006,0.432-0.019,0.538,0.058c0.245,0.179,0.532,0.396,0.763,0.561C5.092,11,5.239,11.167,5.221,11.551
			c-0.029,0.646,0.299,0.946,0.591,1.239c0.363,0.363,0.645,0.634,0.741,1.12c0.175,0.887,0.555,1.021,0.501,1.527
			c-0.07,0.651-0.102,1.356-0.186,2c-0.044,0.338-0.105,0.624-0.173,0.928c0.485,0.192,0.988,0.349,1.51,0.455
			c0.035-0.274,0.145-0.581,0.234-0.768c0.112-0.236,0.88-0.907,1.597-1.614c0.71-0.701,1.371-1.438,1.468-1.655
			c0.196-0.436,0-1.607-0.371-1.978c-0.371-0.371-2.138-1.206-2.713-1.447c-0.414-0.174-1.968,0.015-2.23-0.079
			c-0.106-0.038-0.19-0.097-0.37-0.277c-0.096-0.096-0.114-0.156-0.13-0.242c-0.027-0.144-0.005-0.287-0.017-0.35
			c-0.008-0.039-0.112-0.186-0.222-0.252c-0.095-0.056-0.214-0.057-0.311-0.07c-0.133-0.018-0.257-0.06-0.338-0.119
			C4.724,9.912,4.663,9.858,4.575,9.716c-0.169-0.27-0.414-0.67-0.513-0.938C4.038,8.714,4.028,8.617,4.05,8.536
			c0.021-0.074,0.127-0.13,0.153-0.138C4.346,8.358,4.6,8.342,4.84,8.322c0.3-0.025,0.457-0.037,0.54,0.046
			C5.505,8.494,5.769,8.778,5.981,8.99c0.164,0.165,0.272,0.154,0.368,0.095C6.488,9,6.554,8.974,6.535,8.81
			C6.509,8.591,6.459,8.195,6.459,7.973c0-0.136,0.025-0.282,0.076-0.358c0.172-0.255,1.203-1.309,1.909-2.014
			C8.556,5.488,8.756,5.3,8.639,5.114C8.469,4.841,8.366,4.528,8.167,4.528c-0.155,0-0.353-0.013-0.582-0.046
			C7.363,4.451,7.203,4.493,7.103,4.573c-0.219,0.172-0.405,0.44-0.58,0.637C6.445,5.296,6.237,5.321,6.086,5.232
			C5.987,5.173,5.021,4.547,4.911,4.333C4.824,4.166,4.885,4.047,4.973,3.959c0.293-0.293,0.675-0.588,0.686-0.691
			c0.017-0.151-0.211-0.149-0.36-0.151C5.206,3.116,5.008,3.145,4.952,3.201c-0.066,0.066-0.279,0.286-0.489,0.46
			C4.41,3.706,4.471,4.045,4.42,4.08C4.354,4.126,4.211,3.963,4.127,3.879c-0.043-0.043-0.188-0.23-0.318-0.4
			c-1.19,1.13-2.067,2.58-2.5,4.215C1.59,8.153,1.773,8.573,1.948,8.815z"/>
	</g>
</g>
</svg>
