<?xml version="1.0" encoding="utf-8"?>
<!-- Generator: Adobe Illustrator 17.1.0, SVG Export Plug-In . SVG Version: 6.00 Build 0)  -->
<!DOCTYPE svg PUBLIC "-//W3C//DTD SVG 1.1//EN" "http://www.w3.org/Graphics/SVG/1.1/DTD/svg11.dtd">
<svg version="1.1" id="Layer_1" xmlns="http://www.w3.org/2000/svg" xmlns:xlink="http://www.w3.org/1999/xlink" x="0px" y="0px"
	 viewBox="0 0 48 48" enable-background="new 0 0 48 48" xml:space="preserve">
<g>
	<path fill="#DDDDDD" d="M48,24c0,8.8-7.2,16-16,16H16C7.2,40,0,32.8,0,24l0,0C0,15.2,7.2,8,16,8h16C40.8,8,48,15.2,48,24L48,24z"/>
</g>
<g>
	<path fill="#FFFFFF" d="M16,32.5c-4.687,0-8.5-3.813-8.5-8.5s3.813-8.5,8.5-8.5s8.5,3.813,8.5,8.5S20.687,32.5,16,32.5z"/>
	<path fill="#CCCCCC" d="M16,16c4.418,0,8,3.582,8,8s-3.582,8-8,8s-8-3.582-8-8S11.582,16,16,16 M16,15c-4.963,0-9,4.037-9,9
		s4.037,9,9,9s9-4.037,9-9S20.963,15,16,15L16,15z"/>
</g>
</svg>
